HIERARCHY
ROOT Hips
{
 OFFSET 0.000000 0.000000 0.000000
 CHANNELS 6 Xposition Yposition Zposition Yrotation Xrotation Zrotation
 JOINT Chest
 {
  OFFSET 0.000000 9.857222 0.000240
  CHANNELS 3 Yrotation Xrotation Zrotation
  JOINT Chest2
  {
   OFFSET 0.000000 10.876940 -0.000436
   CHANNELS 3 Yrotation Xrotation Zrotation
   JOINT Chest3
   {
    OFFSET 0.000000 9.827798 0.000000
    CHANNELS 3 Yrotation Xrotation Zrotation
    JOINT Chest4
    {
     OFFSET 0.000000 9.827798 0.000000
     CHANNELS 3 Yrotation Xrotation Zrotation
     JOINT Neck
     {
      OFFSET 0.000000 13.831992 0.000000
      CHANNELS 3 Yrotation Xrotation Zrotation
      JOINT Head
      {
       OFFSET 0.000000 9.147643 -0.001036
       CHANNELS 3 Yrotation Xrotation Zrotation
       End Site
       {
        OFFSET 0.000000 17.515799 -0.000541
       }
      }
     }
     JOINT RightCollar
     {
      OFFSET -3.001579 7.717577 0.000000
      CHANNELS 3 Yrotation Xrotation Zrotation
      JOINT RightShoulder
      {
       OFFSET -14.002642 0.000000 0.000000
       CHANNELS 3 Yrotation Xrotation Zrotation
       JOINT RightElbow
       {
        OFFSET -30.053852 0.000000 0.000000
        CHANNELS 3 Yrotation Xrotation Zrotation
        JOINT RightWrist
        {
         OFFSET -24.564923 0.000000 -0.000000
         CHANNELS 3 Yrotation Xrotation Zrotation
         End Site
         {
          OFFSET -18.334355 0.000000 0.000000
         }
        }
       }
      }
     }
     JOINT LeftCollar
     {
      OFFSET 3.001579 7.717577 0.000000
      CHANNELS 3 Yrotation Xrotation Zrotation
      JOINT LeftShoulder
      {
       OFFSET 14.002642 0.000000 0.000000
       CHANNELS 3 Yrotation Xrotation Zrotation
       JOINT LeftElbow
       {
        OFFSET 30.053852 0.000000 0.000000
        CHANNELS 3 Yrotation Xrotation Zrotation
        JOINT LeftWrist
        {
         OFFSET 24.564923 0.000000 -0.000000
         CHANNELS 3 Yrotation Xrotation Zrotation
         End Site
         {
          OFFSET 18.334355 0.000000 0.000000
         }
        }
       }
      }
     }
    }
   }
  }
 }
 JOINT RightHip
 {
  OFFSET -8.003235 -0.001175 -0.000120
  CHANNELS 3 Yrotation Xrotation Zrotation
  JOINT RightKnee
  {
   OFFSET 0.000000 -41.759727 0.000113
   CHANNELS 3 Yrotation Xrotation Zrotation
   JOINT RightAnkle
   {
    OFFSET 0.000000 -40.728748 0.000159
    CHANNELS 3 Yrotation Xrotation Zrotation
    JOINT RightToe
    {
     OFFSET 0.000000 -6.515296 14.732841
     CHANNELS 3 Yrotation Xrotation Zrotation
     End Site
     {
      OFFSET 0.000000 -1.502839 6.412115
     }
    }
   }
  }
 }
 JOINT LeftHip
 {
  OFFSET 8.003235 -0.001175 -0.000120
  CHANNELS 3 Yrotation Xrotation Zrotation
  JOINT LeftKnee
  {
   OFFSET 0.000000 -41.759727 0.000113
   CHANNELS 3 Yrotation Xrotation Zrotation
   JOINT LeftAnkle
   {
    OFFSET 0.000000 -40.728748 0.000159
    CHANNELS 3 Yrotation Xrotation Zrotation
    JOINT LeftToe
    {
     OFFSET 0.000000 -6.515296 14.732841
     CHANNELS 3 Yrotation Xrotation Zrotation
     End Site
     {
      OFFSET 0.000000 -1.502839 6.412115
     }
    }
   }
  }
 }
}
MOTION
Frames: 12
Frame Time: 0.016667
0.000000 88.822259 0.000000 0.000000 -5.826342 0.000000 0.000000 11.116423 0.000000 0.000000 -5.290081 0.000000 0.000000 0.000000 0.000000 0.000000 0.000000 0.000000 0.000000 12.665069 0.000000 0.000000 0.575450 0.000000 0.000000 0.000000 0.000000 0.000000 0.000000 0.000000 2.337306 0.000000 0.000000 -2.337306 0.000000 0.000000 0.000000 0.000000 0.000000 0.000000 0.000000 0.000000 -2.337306 0.000000 0.000000 2.337306 0.000000 0.000000 0.000000 8.578828 0.000000 0.000000 1.905768 0.000000 0.000000 -4.658254 0.000000 0.000000 0.000000 0.000000 0.000000 8.578828 0.000000 0.000000 1.905768 0.000000 0.000000 -4.658254 0.000000 0.000000 0.000000 0.000000
4.295347 90.344643 16.843922 -29.456550 -18.239333 -1.593121 1.622610 3.135086 1.386308 0.713032 1.381145 0.606282 0.713032 1.381145 0.606282 0.533378 1.036569 0.453079 -8.605651 26.492781 -0.587722 -15.219874 13.308550 0.832494 7.348399 26.506725 12.061076 43.119789 3.428105 70.675564 32.224817 -5.692849 3.409646 -7.082202 4.249826 -11.099219 -34.052563 26.673685 -25.803567 -25.403349 -5.351398 -55.761635 -36.476095 -0.114604 0.011467 11.193208 9.123060 7.891021 -13.130843 13.181573 -2.626173 0.787579 8.436591 -4.244773 1.440006 -4.353228 3.702653 0.053623 0.019326 -0.064204 -4.657331 19.673518 1.983519 4.012745 6.410563 -1.083930 -1.644529 -7.677967 0.348984 -0.027978 -0.021327 -0.026002
4.400339 90.331808 16.941264 -29.225600 -17.979296 -1.573043 1.504199 3.042524 1.293307 0.659105 1.337031 0.566193 0.659105 1.337031 0.566193 0.493068 1.003387 0.423184 -8.586166 26.470361 -0.555716 -15.192809 13.269366 0.887573 7.314214 26.413880 12.059571 42.889304 3.482019 70.739949 32.021276 -5.702193 3.581193 -7.111699 4.254823 -11.037571 -34.096585 26.667347 -25.765303 -25.569391 -5.335339 -55.393626 -36.100347 -0.072606 -0.833286 11.330217 9.003645 7.246850 -13.690092 13.009722 -2.927773 1.155269 8.248685 -4.089922 1.400285 -4.312375 3.791687 0.024506 0.052772 -0.081585 -4.426570 19.256794 1.876027 3.960252 6.681840 -0.866709 -1.841034 -7.787891 0.369742 -0.016246 -0.023385 -0.032262
4.523872 90.312695 17.034647 -29.026629 -17.635674 -1.586712 1.415666 2.939647 1.220675 0.612648 1.284414 0.538573 0.612648 1.284414 0.538573 0.458335 0.963853 0.402626 -8.575034 26.427960 -0.515031 -15.183158 13.194883 0.961926 7.324583 26.323957 12.064898 42.637224 3.552239 70.788609 31.890078 -5.757244 3.693344 -7.151076 4.253629 -10.974571 -34.114208 26.644833 -25.714039 -25.723612 -5.340910 -55.037447 -35.805745 0.107957 -1.625654 11.353343 8.878358 6.639923 -14.170936 12.732264 -3.132405 1.490615 8.100864 -3.972189 1.381570 -4.296888 3.890383 0.007145 0.104183 -0.092334 -4.093432 18.741272 1.819407 3.916212 6.974065 -0.600437 -2.063773 -7.953136 0.369679 -0.014989 0.029554 -0.041490
4.667678 90.298830 17.114632 -28.874884 -17.279331 -1.642989 1.375279 2.838208 1.185139 0.570569 1.248829 0.526151 0.570569 1.248829 0.526151 0.426835 0.937115 0.393432 -8.573782 26.362771 -0.472027 -15.192368 13.079300 1.044904 7.379280 26.245886 12.076486 42.386259 3.649318 70.803555 31.862068 -5.892923 3.732128 -7.165172 4.255491 -10.921631 -34.130834 26.584130 -25.679971 -25.898041 -5.331827 -54.642835 -35.585928 0.275802 -2.347602 11.317298 8.848645 6.155732 -14.542695 12.406793 -3.224398 1.809590 8.005624 -3.918635 1.324880 -4.249648 4.017572 0.002176 0.124747 -0.097366 -3.741598 18.193123 1.802111 3.635869 7.299267 -0.382122 -2.080721 -8.138723 0.397598 -0.018796 0.095393 -0.048625
4.834545 90.296594 17.141751 -28.720931 -16.881907 -1.752120 1.342718 2.721337 1.200906 0.525131 1.225435 0.521461 0.525131 1.225435 0.521461 0.392787 0.919526 0.390028 -8.578766 26.279160 -0.433759 -15.212290 12.929593 1.122775 7.467476 26.187435 12.086662 42.202338 3.774755 70.783498 31.950276 -6.162225 3.670060 -7.157524 4.263746 -10.884065 -34.113512 26.513734 -25.657567 -26.114807 -5.359866 -54.224640 -35.383779 0.671398 -3.028552 11.263842 8.812590 5.811574 -14.633032 11.967808 -3.099467 1.911455 8.043006 -3.952579 1.178550 -4.154830 4.100268 0.096103 0.075423 -0.052325 -3.776847 17.566279 1.750368 3.407712 7.643943 -0.246723 -1.874028 -8.252871 0.451722 -0.030527 0.128212 -0.060008
5.023758 90.300402 17.099371 -28.647940 -16.412925 -1.896510 1.369295 2.583841 1.265303 0.485608 1.208042 0.520498 0.485608 1.208042 0.520498 0.363164 0.906446 0.389399 -8.585421 26.178181 -0.394078 -15.236169 12.748098 1.205395 7.572698 26.160853 12.103693 42.120053 3.909051 70.700112 32.152180 -6.584883 3.505587 -7.156140 4.272289 -10.851644 -34.099095 26.422357 -25.641564 -26.371217 -5.417129 -53.803522 -35.177311 1.280981 -3.590258 11.256113 8.772140 5.580607 -14.322565 11.372150 -2.726961 1.897191 8.229227 -4.074506 0.822176 -4.054352 4.134469 0.290563 0.003025 0.049327 -3.894506 16.828582 1.748213 3.103825 8.006992 -0.185342 -1.563554 -8.371938 0.540747 -0.056815 0.198920 -0.079855
5.220873 90.308351 16.983261 -28.663115 -15.904882 -2.079100 1.431366 2.455998 1.363084 0.458445 1.196483 0.523538 0.458445 1.196483 0.523538 0.342796 0.897756 0.391742 -8.585897 26.069063 -0.347228 -15.251050 12.551951 1.300340 7.694702 26.144577 12.135150 42.142317 4.071369 70.567955 32.475785 -7.114248 3.244294 -7.158669 4.272493 -10.828704 -34.100428 26.341316 -25.630514 -26.620723 -5.510088 -53.368549 -35.001762 1.948547 -4.019184 11.311433 8.781858 5.488559 -13.673874 10.653502 -2.127043 1.822527 8.551631 -4.285287 0.308804 -3.945552 4.112302 0.564201 -0.099406 0.201588 -4.129350 16.005408 1.811676 3.024047 8.405435 -0.179856 -1.385560 -8.471308 0.645112 -0.089232 0.275411 -0.097345
5.388761 90.321443 16.800633 -28.741199 -15.397010 -2.299409 1.491404 2.375780 1.483498 0.443926 1.191124 0.530929 0.443926 1.191124 0.530929 0.331898 0.893730 0.397317 -8.575079 25.953013 -0.294305 -15.247550 12.342839 1.404418 7.806098 26.158690 12.161105 42.272661 4.236866 70.398702 32.942792 -7.675030 2.869569 -7.157541 4.271804 -10.817184 -34.113466 26.282081 -25.624311 -26.819262 -5.712905 -52.950290 -34.850879 2.676845 -4.342037 11.395178 8.818717 5.541804 -12.844757 9.849921 -1.390646 1.756806 9.006477 -4.499469 -0.322420 -3.844667 4.002193 0.873824 -0.230834 0.381913 -4.423625 15.137263 1.886950 3.179832 8.859627 -0.043436 -1.301483 -8.539061 0.639052 -0.115723 0.316048 -0.104905
5.544121 90.338283 16.557727 -28.907599 -14.805734 -2.527718 1.556870 2.299362 1.591824 0.441050 1.177073 0.542102 0.441050 1.177073 0.542102 0.329732 0.883197 0.405713 -8.543197 25.834807 -0.238016 -15.207457 12.128450 1.510144 7.900404 26.181387 12.189188 42.479207 4.394599 70.187009 33.543621 -8.154243 2.413414 -7.141048 4.278814 -10.821657 -34.128398 26.257765 -25.618295 -27.041341 -5.991104 -52.544306 -34.728351 3.337095 -4.517911 11.493108 8.863049 5.714590 -11.904185 8.866853 -0.563821 1.734108 9.591304 -4.716822 -0.986636 -3.765763 3.820619 1.230059 -0.384735 0.586082 -4.583570 14.217234 2.054605 3.263212 9.208428 0.073014 -1.157596 -8.567005 0.606582 -0.155457 0.392153 -0.115992
5.663114 90.354329 16.285827 -29.127217 -14.104606 -2.770167 1.575973 2.254707 1.679508 0.450621 1.137193 0.555452 0.450621 1.137193 0.555452 0.336922 0.853306 0.415737 -8.483565 25.707100 -0.178859 -15.118959 11.894556 1.615857 7.979841 26.206254 12.215995 42.701038 4.525429 69.917139 34.272733 -8.427828 1.912528 -7.094566 4.291519 -10.850384 -34.127799 26.244149 -25.598539 -27.284553 -6.316366 -52.162607 -34.647066 3.851728 -4.519405 11.594314 8.913371 5.918887 -11.014208 7.684142 0.300296 1.788040 10.327870 -4.892866 -1.655459 -3.765110 3.568209 1.591756 -0.538276 0.791942 -4.519367 13.228244 2.325083 3.252319 9.469776 0.214957 -1.064362 -8.542503 0.533185 -0.201896 0.457614 -0.129544
5.737883 90.363832 16.003157 -29.426448 -13.272679 -2.993389 1.563610 2.231109 1.716456 0.474529 1.071723 0.569104 0.474529 1.071723 0.569104 0.354888 0.804236 0.425983 -8.391711 25.561872 -0.111117 -14.975687 11.626594 1.731441 8.051140 26.216324 12.247466 42.905097 4.620746 69.571800 35.132614 -8.486230 1.389827 -7.023872 4.324899 -10.914028 -34.120929 26.238812 -25.561664 -27.458785 -6.738331 -51.793091 -34.637459 4.242341 -4.462112 11.678515 8.971117 6.120589 -10.213568 6.256683 1.154868 1.762298 11.259351 -5.077396 -2.156713 -3.855314 3.276013 1.944073 -0.715304 0.998245 -4.268133 12.147040 2.642562 3.327956 9.677490 0.407710 -1.068717 -8.550170 0.409700 -0.240621 0.558647 -0.141921
